<svg width="48" height="48" viewBox="0 0 48 48" fill="none" xmlns="http://www.w3.org/2000/svg">
<path fill-rule="evenodd" clip-rule="evenodd" d="M4.5 24C4.5 13.2341 13.2341 4.5 24 4.5C34.7659 4.5 43.5 13.2341 43.5 24C43.5 34.7659 34.7659 43.5 24 43.5C13.2341 43.5 4.5 34.7659 4.5 24ZM24 7.5C14.8909 7.5 7.5 14.8909 7.5 24C7.5 33.1091 14.8909 40.5 24 40.5C33.1091 40.5 40.5 33.1091 40.5 24C40.5 14.8909 33.1091 7.5 24 7.5Z" fill="#323238"/>
<path fill-rule="evenodd" clip-rule="evenodd" d="M19.5 16.5C20.3284 16.5 21 17.1716 21 18V30C21 30.8284 20.3284 31.5 19.5 31.5C18.6716 31.5 18 30.8284 18 30V18C18 17.1716 18.6716 16.5 19.5 16.5Z" fill="#323238"/>
<path fill-rule="evenodd" clip-rule="evenodd" d="M28.5 16.5C29.3284 16.5 30 17.1716 30 18V30C30 30.8284 29.3284 31.5 28.5 31.5C27.6716 31.5 27 30.8284 27 30V18C27 17.1716 27.6716 16.5 28.5 16.5Z" fill="#323238"/>
</svg>
